<svg width="324" height="351" viewBox="0 0 324 351" fill="none" xmlns="http://www.w3.org/2000/svg">
<g filter="url(#filter0_d_5_42)">
<path d="M45.6221 4.2487C33.8029 9.5362 17.3184 26.9539 13.275 38.1509C7.98749 52.1473 9.23161 75.1634 16.0743 88.2267C21.6728 99.7348 21.6728 101.29 17.3184 120.885C5.49926 171.272 25.4051 214.194 71.7485 237.521C89.4772 246.852 120.891 254.939 138.309 254.939H149.817V272.667C149.817 300.66 136.132 317.455 116.848 313.412C114.049 313.101 108.761 308.747 105.34 304.081C100.052 296.928 99.4302 294.439 102.54 287.597C107.517 277.022 122.757 277.644 124.313 288.219C125.246 295.372 134.888 300.349 140.486 296.928C146.707 293.195 143.596 279.199 134.577 270.179C109.072 244.675 69.5713 277.022 86.678 309.68C101.918 339.228 138.62 339.228 160.392 309.68C165.057 303.459 167.235 295.372 167.857 277.955L169.101 254.939H182.164C198.338 254.939 227.263 247.474 248.102 238.143C294.135 216.993 316.84 169.405 304.71 118.086C300.977 102.534 300.977 100.357 307.509 87.2936C323.371 56.5017 311.241 21.9774 279.205 5.49282C262.099 -3.21601 232.862 -1.34983 216.377 9.5362C204.869 17.3119 203.003 17.623 182.164 14.8237C168.79 12.9575 151.683 12.9575 138.62 14.8237C118.092 17.623 116.537 17.3119 106.584 9.5362C98.1861 3.31561 91.9655 1.44943 75.4809 0.827374C62.7287 0.205315 51.5316 1.44943 45.6221 4.2487ZM93.2096 27.8869C113.427 40.3281 117.159 67.6987 101.296 86.6715C85.4339 105.644 60.5515 105.955 42.8228 87.2936C11.4088 54.6355 54.3309 4.2487 93.2096 27.8869ZM272.363 27.5759C284.804 35.9737 289.469 45.3046 289.78 63.0333C289.78 76.0965 288.225 79.8289 279.516 88.5377C253.079 114.975 212.023 97.5576 212.023 59.923C212.023 45.9267 222.598 29.7531 235.039 24.7766C246.236 20.1112 263.032 21.3553 272.363 27.5759ZM189.318 56.5017C188.696 80.762 198.027 99.4237 217.621 113.42C229.441 121.507 233.795 122.751 250.28 122.44C260.855 122.129 272.363 121.507 275.784 120.885C281.694 119.641 282.005 121.196 282.005 142.657V165.673L264.898 171.583C207.979 191.488 107.828 191.8 52.7757 171.894L37.8463 166.606V146.389C37.8463 119.019 39.0904 117.774 57.4412 122.129C86.3669 128.661 115.293 114.975 128.045 88.2267C133.643 76.7186 134.888 70.498 133.332 55.5686L131.777 37.2178H160.703H189.629L189.318 56.5017ZM86.0559 203.619C98.1861 206.107 117.159 208.906 128.978 209.839L149.817 212.016V222.591C149.817 235.033 147.329 235.655 114.671 228.501C92.2765 223.836 66.461 211.394 57.4412 201.13C52.1537 194.91 52.1537 194.91 58.0632 197.087C61.4846 198.331 74.2368 201.441 86.0559 203.619ZM268.008 197.398C268.008 198.331 260.543 203.619 251.524 209.839C235.35 220.414 195.227 233.166 177.188 233.166C169.412 233.166 168.479 232.233 168.479 222.591V212.016L189.629 209.839C201.137 208.906 221.665 205.485 235.35 202.375C263.032 195.843 268.008 195.221 268.008 197.398Z" fill="#253D57"/>
<path d="M78.2885 66.843C78.2885 67.979 78.0797 68.9688 77.662 69.8124C77.2527 70.6561 76.6889 71.3577 75.9706 71.9173C75.2522 72.4853 74.4044 72.9072 73.4271 73.1828C72.4582 73.4668 71.4183 73.6088 70.3074 73.6088C69.8814 73.6088 69.4721 73.5712 69.0795 73.496C68.6869 73.4292 68.3403 73.3332 68.0396 73.2079C67.7389 73.0826 67.5008 72.9322 67.3254 72.7568C67.1416 72.5897 67.0497 72.406 67.0497 72.2055C67.0497 72.0552 67.0706 71.9006 67.1124 71.7419C67.1542 71.5916 67.2168 71.4538 67.3003 71.3285C67.3839 71.2032 67.4883 71.0988 67.6136 71.0152C67.7305 70.9317 67.8641 70.8899 68.0145 70.8899C68.1064 70.8899 68.1857 70.9359 68.2526 71.0278C68.3277 71.1196 68.4029 71.2324 68.4781 71.3661C68.5533 71.5081 68.6368 71.6584 68.7287 71.8171C68.8289 71.9758 68.9542 72.122 69.1045 72.2556C69.2632 72.3976 69.4512 72.5146 69.6684 72.6065C69.8855 72.6983 70.157 72.7443 70.4828 72.7443C71.1259 72.7443 71.6772 72.6273 72.1366 72.3935C72.6044 72.1596 72.9886 71.8296 73.2893 71.4036C73.59 70.9776 73.8114 70.4681 73.9534 69.8751C74.1037 69.2904 74.1789 68.6472 74.1789 67.9456V52.3717C74.1789 52.1879 74.158 52.0417 74.1163 51.9332C74.0745 51.8246 74.016 51.741 73.9408 51.6826C73.8657 51.6158 73.7738 51.574 73.6652 51.5573C73.565 51.5322 73.4522 51.5197 73.3269 51.5197C73.1431 51.5197 72.9134 51.5489 72.6378 51.6074C72.3705 51.6659 72.0865 51.7536 71.7858 51.8705C71.4851 51.9875 71.1802 52.1336 70.8712 52.309C70.5705 52.4761 70.299 52.6682 70.0568 52.8854C69.8229 53.1026 69.6308 53.3448 69.4804 53.6121C69.3301 53.8794 69.2549 54.1675 69.2549 54.4766C69.2549 54.7439 69.2883 54.9569 69.3551 55.1156C69.4303 55.2743 69.5138 55.3954 69.6057 55.4789C69.6976 55.5541 69.7895 55.6042 69.8814 55.6293C69.9816 55.646 70.0526 55.6544 70.0944 55.6544C70.3032 55.6544 70.4744 55.6209 70.6081 55.5541C70.7417 55.4789 70.8628 55.4038 70.9714 55.3286C71.08 55.2451 71.1802 55.1699 71.2721 55.1031C71.3723 55.0279 71.4851 54.9903 71.6104 54.9903C71.7106 54.9903 71.815 55.0154 71.9236 55.0655C72.0406 55.1072 72.145 55.1782 72.2369 55.2785C72.3371 55.3787 72.4206 55.5124 72.4874 55.6794C72.5543 55.8381 72.5877 56.0344 72.5877 56.2683C72.5877 56.6024 72.5209 56.8906 72.3872 57.1328C72.2619 57.375 72.0949 57.5797 71.886 57.7467C71.6856 57.9054 71.4517 58.0266 71.1844 58.1101C70.9255 58.1853 70.6665 58.2229 70.4076 58.2229C70.0067 58.2229 69.6433 58.156 69.3175 58.0224C69.0001 57.8804 68.7287 57.6883 68.5031 57.446C68.2776 57.2038 68.1064 56.9198 67.9894 56.5941C67.8725 56.2683 67.814 55.9216 67.814 55.5541C67.814 54.9778 67.9184 54.4515 68.1273 53.9754C68.3361 53.491 68.6201 53.0566 68.9793 52.6724C69.3468 52.2882 69.7728 51.954 70.2572 51.67C70.7501 51.3777 71.2805 51.1355 71.8485 50.9434C72.4164 50.7512 73.0095 50.6092 73.6276 50.5174C74.2457 50.4171 74.8638 50.367 75.4819 50.367C76.1669 50.367 76.6973 50.4338 77.0732 50.5675C77.4574 50.6928 77.7372 50.8473 77.9126 51.0311C78.0964 51.2148 78.205 51.4069 78.2384 51.6074C78.2718 51.8079 78.2885 51.9749 78.2885 52.1086V66.843Z" fill="#253D57"/>
<path fill-rule="evenodd" clip-rule="evenodd" d="M74.1789 52.3717C74.1789 52.1879 74.158 52.0418 74.1163 51.9332C74.0745 51.8246 74.016 51.7411 73.9409 51.6826C73.8997 51.646 73.8536 51.617 73.8024 51.5954C73.7973 51.5933 73.7922 51.5912 73.7869 51.5892C73.749 51.5746 73.7084 51.564 73.6652 51.5573C73.565 51.5322 73.4522 51.5197 73.3269 51.5197C73.1432 51.5197 72.9135 51.549 72.6378 51.6074C72.4721 51.6437 72.2999 51.6912 72.1213 51.7499C72.0119 51.7859 71.9001 51.8261 71.7858 51.8705C71.4851 51.9875 71.1802 52.1337 70.8712 52.3091C70.8119 52.342 70.7537 52.3759 70.6967 52.4108C70.6954 52.4116 70.6941 52.4124 70.6929 52.4132C70.4622 52.5546 70.2502 52.712 70.0568 52.8854C69.9118 53.02 69.7829 53.1643 69.67 53.3181C69.6679 53.3211 69.6657 53.324 69.6636 53.327C69.6329 53.3691 69.6034 53.412 69.5751 53.4556C69.5734 53.4583 69.5716 53.461 69.5698 53.4637C69.5694 53.4645 69.5689 53.4652 69.5685 53.4659C69.5676 53.4672 69.5668 53.4685 69.5659 53.4698C69.5622 53.4756 69.5586 53.4814 69.5549 53.4872C69.5354 53.5181 69.5165 53.5494 69.4982 53.581C69.4922 53.5913 69.4863 53.6017 69.4804 53.6121C69.3325 53.875 69.2574 54.1582 69.255 54.4615C69.255 54.4644 69.2549 54.4672 69.2549 54.47C69.2549 54.4722 69.2549 54.4744 69.2549 54.4766C69.2549 54.7439 69.2883 54.9569 69.3551 55.1156C69.4303 55.2743 69.5139 55.3954 69.6057 55.479C69.6408 55.5077 69.6759 55.5327 69.711 55.5541C69.7678 55.5888 69.8246 55.6138 69.8814 55.6293C69.9816 55.646 70.0526 55.6544 70.0944 55.6544C70.1138 55.6544 70.1329 55.6541 70.1516 55.6535C70.3347 55.6479 70.4868 55.6148 70.6081 55.5541C70.7417 55.479 70.8628 55.4038 70.9714 55.3286C71.08 55.2451 71.1802 55.1699 71.2721 55.1031C71.3724 55.0279 71.4851 54.9903 71.6104 54.9903C71.6866 54.9903 71.7652 55.0048 71.8462 55.0337C71.8718 55.0429 71.8976 55.0535 71.9236 55.0655C72.0406 55.1073 72.145 55.1783 72.2369 55.2785C72.3371 55.3787 72.4206 55.5124 72.4875 55.6794C72.5543 55.8381 72.5877 56.0344 72.5877 56.2683C72.5877 56.4516 72.5676 56.6211 72.5274 56.7767C72.5241 56.7895 72.5206 56.8022 72.517 56.8148C72.4848 56.9284 72.4415 57.0344 72.3872 57.1328C72.3849 57.1373 72.3826 57.1417 72.3803 57.1461C72.3788 57.1489 72.3774 57.1517 72.3759 57.1544C72.3645 57.1759 72.3527 57.1971 72.3406 57.2179C72.2215 57.4234 72.07 57.5996 71.8861 57.7468C71.8729 57.7572 71.8596 57.7674 71.8462 57.7775C71.6548 57.9212 71.4342 58.0321 71.1844 58.1101C70.9255 58.1853 70.6665 58.2229 70.4076 58.2229C70.0067 58.2229 69.6433 58.1561 69.3176 58.0224C69.119 57.9336 68.9383 57.8251 68.7757 57.697C68.6784 57.6204 68.5876 57.5367 68.5032 57.4461C68.4115 57.3476 68.3287 57.2422 68.255 57.1299C68.2339 57.0978 68.2136 57.0651 68.194 57.0319C68.1134 56.8955 68.0453 56.7495 67.9895 56.5941C67.9033 56.354 67.8489 56.1026 67.8262 55.8399C67.824 55.814 67.822 55.7879 67.8204 55.7618C67.8162 55.6934 67.814 55.6241 67.814 55.5541C67.814 55.1731 67.8597 54.8139 67.951 54.4766C67.9978 54.3038 68.0565 54.1368 68.1273 53.9755C68.2584 53.6713 68.4191 53.3869 68.6095 53.1222C68.7224 52.9653 68.8456 52.8154 68.9793 52.6724C69.1271 52.5179 69.2844 52.3714 69.4511 52.2331C69.4551 52.2298 69.4591 52.2265 69.4631 52.2232C69.7076 52.0215 69.9723 51.8371 70.2573 51.6701C70.3198 51.633 70.383 51.5967 70.4467 51.5612C70.449 51.5599 70.4513 51.5586 70.4536 51.5574C70.7792 51.3766 71.1205 51.2168 71.4776 51.078C71.5994 51.0307 71.723 50.9858 71.8485 50.9434C72.0468 50.8763 72.2481 50.8153 72.4525 50.7605C72.4543 50.76 72.4561 50.7595 72.4579 50.7591C72.7417 50.6831 73.0314 50.6188 73.3269 50.5664C73.4265 50.5487 73.5267 50.5324 73.6276 50.5174C73.6951 50.5064 73.7625 50.4961 73.83 50.4864C73.8655 50.4812 73.9011 50.4762 73.9367 50.4714C74.276 50.4256 74.6153 50.3948 74.9546 50.3792C75.0047 50.3769 75.0547 50.3749 75.1047 50.3732C75.2305 50.3691 75.3562 50.367 75.482 50.367C75.6275 50.367 75.7661 50.37 75.8977 50.3761C76.3853 50.3984 76.7772 50.4622 77.0732 50.5675C77.4574 50.6928 77.7372 50.8473 77.9126 51.0311C78.0964 51.2148 78.205 51.407 78.2384 51.6074C78.2718 51.8079 78.2885 51.9749 78.2885 52.1086V66.843C78.2885 67.979 78.0797 68.9688 77.6621 69.8124C77.2528 70.6561 76.6889 71.3577 75.9706 71.9174C75.8235 72.0337 75.6709 72.1439 75.513 72.2479C75.3336 72.3661 75.1473 72.4763 74.9539 72.5787C74.486 72.8263 73.9771 73.0277 73.4272 73.1828C73.1693 73.2584 72.9065 73.3239 72.6386 73.3794C72.6358 73.3799 72.6331 73.3805 72.6304 73.3811C71.9472 73.5219 71.2313 73.5975 70.4828 73.6076C70.4245 73.6084 70.366 73.6088 70.3074 73.6088C69.9525 73.6088 69.6091 73.5827 69.2774 73.5305C69.211 73.5201 69.145 73.5086 69.0795 73.4961C68.7557 73.4409 68.4632 73.366 68.202 73.2711C68.2005 73.2705 68.199 73.27 68.1975 73.2694C68.1551 73.254 68.1136 73.2381 68.0729 73.2216C68.0617 73.217 68.0506 73.2125 68.0396 73.2079C68.0312 73.2044 68.0228 73.2009 68.0145 73.1973C67.7256 73.0742 67.4959 72.9273 67.3254 72.7568C67.3137 72.7462 67.3024 72.7355 67.2915 72.7248C67.2752 72.7087 67.2596 72.6925 67.245 72.6761C67.1148 72.5311 67.0498 72.3742 67.0498 72.2055C67.0498 72.1935 67.0499 72.1814 67.0502 72.1693C67.0505 72.1533 67.0511 72.1372 67.0519 72.1211C67.054 72.0816 67.0574 72.0418 67.0622 72.0017C67.0671 71.9613 67.0735 71.9206 67.0812 71.8797C67.0898 71.8341 67.1002 71.7882 67.1124 71.742C67.1542 71.5916 67.2168 71.4538 67.3003 71.3285C67.3839 71.2032 67.4883 71.0988 67.6136 71.0153C67.7305 70.9317 67.8642 70.89 68.0145 70.89C68.1064 70.89 68.1857 70.9359 68.2526 71.0278C68.3277 71.1197 68.4029 71.2324 68.4781 71.3661C68.4916 71.3916 68.5054 71.4174 68.5194 71.4434C68.5332 71.4689 68.5472 71.4947 68.5615 71.5208C68.5946 71.5812 68.6292 71.6431 68.6652 71.7064C68.6859 71.7429 68.7071 71.7798 68.7287 71.8171C68.8165 71.9562 68.9236 72.0857 69.05 72.2055C69.0678 72.2224 69.086 72.2391 69.1046 72.2557C69.1102 72.2607 69.1159 72.2657 69.1216 72.2707C69.1387 72.2856 69.1561 72.3002 69.1739 72.3146C69.2044 72.3393 69.2359 72.3631 69.2684 72.3861C69.2753 72.391 69.2823 72.3958 69.2893 72.4006C69.3054 72.4117 69.3217 72.4225 69.3383 72.4332C69.4396 72.4985 69.5496 72.5562 69.6684 72.6065C69.8453 72.6813 70.0583 72.7257 70.3074 72.7396C70.364 72.7427 70.4224 72.7443 70.4828 72.7443C71.126 72.7443 71.6772 72.6274 72.1366 72.3935C72.4689 72.2273 72.7591 72.0127 73.0071 71.7496C73.0111 71.7453 73.0152 71.7409 73.0193 71.7366C73.1157 71.633 73.2058 71.5221 73.2893 71.4037C73.4625 71.1583 73.6094 70.8853 73.7299 70.5845C73.8187 70.3631 73.8932 70.1266 73.9534 69.8751C74.1037 69.2904 74.1789 68.6472 74.1789 67.9456V52.3717ZM71.8462 60.347L71.8348 60.3503C71.3733 60.4843 70.8956 60.5556 70.4076 60.5556C69.7448 60.5556 69.0752 60.4444 68.4322 60.1806L68.3983 60.1667L68.365 60.1518C67.7771 59.8888 67.245 59.518 66.7959 59.0356C66.3451 58.5515 66.0126 57.9915 65.7939 57.3822C65.5807 56.7883 65.4813 56.1736 65.4813 55.5541C65.4813 54.693 65.6383 53.8455 65.9879 53.0455C66.3026 52.3176 66.7336 51.6588 67.2752 51.0794L67.2934 51.0599C67.8171 50.5125 68.414 50.0473 69.0722 49.6607C69.71 49.2829 70.3878 48.9749 71.1011 48.7336C71.8013 48.4968 72.525 48.3238 73.2694 48.2123C74.0043 48.0939 74.7422 48.0343 75.482 48.0343C76.2597 48.0343 77.087 48.103 77.8233 48.3586C78.368 48.5388 79.038 48.8416 79.5799 49.3995C80.005 49.83 80.4081 50.4364 80.5394 51.2239C80.5842 51.4931 80.6212 51.7986 80.6212 52.1086V66.843C80.6212 68.2614 80.3604 69.6159 79.7568 70.8389C79.1979 71.988 78.4138 72.9695 77.4107 73.7525C76.4308 74.5258 75.3054 75.0754 74.0717 75.4247C72.873 75.7748 71.6141 75.9415 70.3074 75.9415C69.7519 75.9415 69.2032 75.8932 68.6645 75.7917C68.1433 75.7015 67.6295 75.5641 67.1424 75.3612C66.6579 75.1593 66.1516 74.8697 65.7133 74.4431C65.1854 73.9465 64.717 73.1884 64.717 72.2055C64.717 71.8375 64.7684 71.4832 64.8565 71.1483L64.8646 71.1176C64.97 70.7379 65.1339 70.3728 65.3594 70.0345C65.6074 69.6625 65.922 69.3449 66.2912 69.0934C66.815 68.7299 67.4147 68.5572 68.0145 68.5572C68.987 68.5572 69.6875 69.073 70.0873 69.5869C70.2552 69.7971 70.3947 70.0152 70.5112 70.2224L70.5258 70.2483L70.5397 70.2746C70.5625 70.3176 70.5866 70.3622 70.612 70.4086C70.8887 70.3954 71.0256 70.3415 71.0783 70.3146L71.0934 70.307C71.218 70.2447 71.3055 70.169 71.3836 70.0584C71.4872 69.9116 71.6002 69.685 71.6848 69.3319L71.6893 69.313L71.6942 69.2941C71.7886 68.927 71.8462 68.4821 71.8462 67.9456V60.347Z" fill="#253D57"/>
<path d="M250.15 70.915C250.484 70.915 250.814 70.8524 251.14 70.7271C251.466 70.6101 251.754 70.4097 252.004 70.1257C252.263 69.85 252.472 69.4867 252.631 69.0356C252.79 68.5846 252.869 68.0333 252.869 67.3817C252.869 66.6801 252.694 65.9994 252.343 65.3395C252 64.6796 251.566 64.0323 251.04 63.3974C250.522 62.7543 249.958 62.1195 249.348 61.493C248.747 60.8582 248.183 60.215 247.657 59.5635C247.139 58.9036 246.705 58.227 246.354 57.5337C246.011 56.8321 245.84 56.1012 245.84 55.3411C245.84 54.581 245.978 53.8961 246.254 53.2863C246.538 52.6682 246.918 52.1462 247.394 51.7202C247.878 51.2858 248.438 50.9517 249.073 50.7178C249.716 50.4839 250.401 50.367 251.127 50.367C251.904 50.367 252.593 50.4505 253.195 50.6176C253.805 50.7763 254.318 50.9976 254.736 51.2816C255.162 51.5573 255.483 51.8872 255.701 52.2715C255.918 52.6473 256.026 53.0483 256.026 53.4743C256.026 53.6747 255.997 53.8836 255.939 54.1007C255.88 54.3095 255.788 54.5017 255.663 54.6771C255.538 54.8525 255.379 54.9987 255.187 55.1156C254.995 55.2325 254.769 55.291 254.51 55.291C254.201 55.291 253.972 55.1991 253.821 55.0154C253.679 54.8232 253.571 54.5894 253.495 54.3137C253.429 54.0381 253.37 53.7374 253.32 53.4116C253.27 53.0775 253.191 52.7726 253.082 52.497C252.973 52.2213 252.811 51.9916 252.593 51.8079C252.376 51.6158 252.059 51.5197 251.641 51.5197C251.416 51.5197 251.19 51.5698 250.965 51.67C250.747 51.7703 250.547 51.9248 250.363 52.1336C250.188 52.3341 250.046 52.593 249.937 52.9104C249.829 53.2279 249.774 53.6037 249.774 54.0381C249.774 54.5393 249.879 55.0279 250.087 55.504C250.296 55.9801 250.572 56.4521 250.914 56.9198C251.257 57.3792 251.645 57.8428 252.08 58.3106C252.522 58.77 252.969 59.2377 253.42 59.7138C253.88 60.1816 254.327 60.6661 254.761 61.1672C255.204 61.6601 255.596 62.1738 255.939 62.7083C256.281 63.2429 256.557 63.8026 256.766 64.3873C256.974 64.972 257.079 65.5859 257.079 66.2291C257.079 67.1729 256.895 68.0166 256.528 68.76C256.168 69.495 255.676 70.1131 255.049 70.6143C254.431 71.1238 253.704 71.5122 252.869 71.7795C252.034 72.0468 251.144 72.1805 250.2 72.1805C249.348 72.1805 248.592 72.0719 247.932 71.8547C247.281 71.6459 246.73 71.3661 246.279 71.0152C245.828 70.6644 245.485 70.2635 245.251 69.8124C245.026 69.3697 244.913 68.9103 244.913 68.4342C244.913 68.2337 244.942 68.0207 245.001 67.7952C245.067 67.5613 245.159 67.3483 245.276 67.1562C245.402 66.9641 245.556 66.8054 245.74 66.6801C245.924 66.5465 246.137 66.4796 246.379 66.4796C246.629 66.4796 246.83 66.5423 246.98 66.6676C247.139 66.7929 247.264 66.9599 247.356 67.1688C247.448 67.3776 247.523 67.6156 247.582 67.8829C247.64 68.1502 247.703 68.4217 247.77 68.6973C247.836 68.973 247.92 69.2444 248.02 69.5117C248.12 69.779 248.258 70.0171 248.434 70.2259C248.609 70.4347 248.835 70.6018 249.11 70.7271C249.386 70.8524 249.732 70.915 250.15 70.915Z" fill="#253D57"/>
<path fill-rule="evenodd" clip-rule="evenodd" d="M250.275 68.5597L250.279 68.555L250.302 68.5306C250.302 68.5306 250.302 68.5305 250.303 68.5303C250.307 68.5249 250.362 68.4552 250.43 68.2614C250.476 68.1311 250.536 67.8586 250.536 67.3818C250.536 67.0868 250.467 66.7798 250.283 66.4345L250.272 66.4141L250.272 66.4141C250.014 65.9166 249.675 65.4068 249.244 64.8862L249.233 64.8734L249.223 64.8604C248.753 64.2774 248.238 63.6972 247.677 63.1201L247.655 63.0975L247.655 63.0973C247.013 62.4199 246.409 61.7306 245.842 61.0292L245.822 61.0038L245.822 61.0037C245.217 60.2327 244.698 59.4274 244.272 58.587L244.265 58.572L244.257 58.557C243.764 57.5456 243.507 56.4657 243.507 55.3411C243.507 54.2947 243.698 53.2756 244.128 52.3254L244.134 52.3124L244.134 52.3124C244.542 51.4233 245.108 50.636 245.837 49.9833M250.275 68.5597C250.228 68.5755 250.193 68.5808 250.164 68.582C250.115 68.4385 250.072 68.2938 250.037 68.1477C249.974 67.8885 249.915 67.634 249.86 67.3844C249.775 66.9946 249.656 66.6047 249.491 66.2293C249.269 65.7245 248.931 65.242 248.448 64.8545C247.778 64.3084 247.011 64.1469 246.379 64.1469C245.69 64.1469 245.001 64.3435 244.399 64.7715C243.965 65.0726 243.605 65.4493 243.322 65.8819L243.303 65.9123L243.284 65.9433C243.05 66.328 242.877 66.7357 242.758 67.1544L242.75 67.182L242.743 67.2098C242.642 67.5964 242.58 68.0074 242.58 68.4342C242.58 69.2946 242.788 70.1154 243.173 70.8713L243.173 70.8714L243.18 70.8862C243.588 71.6715 244.163 72.3249 244.846 72.8566C245.549 73.403 246.353 73.7972 247.212 74.0734C248.151 74.3812 249.158 74.5132 250.2 74.5132C251.367 74.5132 252.498 74.3475 253.58 74.0013C254.665 73.6541 255.656 73.1346 256.52 72.425C257.413 71.7072 258.116 70.8201 258.621 69.7889C259.167 68.6836 259.412 67.4799 259.412 66.2291C259.412 65.3283 259.264 64.4482 258.962 63.6027C258.693 62.8481 258.338 62.1298 257.903 61.45C257.493 60.8106 257.028 60.2021 256.51 59.6242C256.054 59.0977 255.583 58.5878 255.1 58.0945C254.949 57.9359 254.799 57.7782 254.65 57.6213C255.229 57.601 255.835 57.4519 256.4 57.1082C256.849 56.8347 257.245 56.4758 257.561 56.033C257.845 55.6359 258.054 55.1976 258.185 54.7297L258.185 54.7297L258.191 54.7072C258.297 54.3159 258.359 53.9027 258.359 53.4743C258.359 52.6342 258.14 51.8351 257.726 51.114C257.302 50.3686 256.708 49.7834 256.025 49.3377C255.351 48.8833 254.592 48.5726 253.8 48.3648C252.959 48.1332 252.059 48.0343 251.127 48.0343C250.146 48.0343 249.19 48.1932 248.275 48.5256L248.275 48.5255L248.266 48.5289C247.366 48.8605 246.55 49.3441 245.837 49.9828M253.521 50.7114C253.416 50.678 253.307 50.6468 253.195 50.6176C252.729 50.4883 252.212 50.4091 251.641 50.3798C251.474 50.3713 251.303 50.367 251.127 50.367C250.881 50.367 250.64 50.3804 250.403 50.4073C250.396 50.4081 250.39 50.4088 250.383 50.4096C249.928 50.4627 249.492 50.5655 249.073 50.7178C248.998 50.7453 248.925 50.7741 248.852 50.8042C248.851 50.8051 248.849 50.8059 248.847 50.8067C248.628 50.898 248.419 51.0019 248.22 51.1184C247.924 51.2913 247.648 51.4919 247.394 51.7202C246.918 52.1462 246.538 52.6682 246.254 53.2863C245.978 53.8961 245.84 54.581 245.84 55.3411C245.84 56.1013 246.011 56.8321 246.354 57.5338C246.705 58.227 247.139 58.9036 247.657 59.5635C248.183 60.215 248.747 60.8582 249.348 61.493C249.958 62.1195 250.522 62.7543 251.04 63.3975C251.566 64.0323 252 64.6796 252.343 65.3395C252.694 65.9994 252.869 66.6801 252.869 67.3818C252.869 68.0333 252.79 68.5846 252.631 69.0356C252.579 69.1837 252.521 69.3223 252.458 69.4515C252.393 69.5864 252.321 69.711 252.244 69.8253C252.169 69.9349 252.09 70.035 252.004 70.1257C251.754 70.4097 251.466 70.6101 251.14 70.7271C250.831 70.8461 250.517 70.9086 250.2 70.9145C250.184 70.9149 250.167 70.915 250.15 70.915C249.733 70.915 249.386 70.8524 249.11 70.7271C248.848 70.6077 248.631 70.4504 248.459 70.2553C248.456 70.2514 248.452 70.2476 248.449 70.2437C248.444 70.2378 248.439 70.2319 248.434 70.2259C248.258 70.0171 248.12 69.779 248.02 69.5117C247.999 69.4543 247.978 69.3966 247.958 69.3387C247.885 69.1275 247.822 68.9137 247.77 68.6973C247.703 68.4217 247.64 68.1502 247.582 67.8829C247.523 67.6156 247.448 67.3776 247.356 67.1688C247.264 66.9599 247.139 66.7929 246.98 66.6676C246.83 66.5423 246.629 66.4797 246.379 66.4797C246.137 66.4797 245.924 66.5465 245.74 66.6801C245.556 66.8054 245.402 66.9641 245.276 67.1562C245.159 67.3484 245.067 67.5614 245.001 67.7952C244.942 68.0208 244.913 68.2338 244.913 68.4342C244.913 68.9103 245.026 69.3697 245.251 69.8124C245.445 70.1857 245.713 70.5247 246.055 70.8293C246.126 70.8928 246.201 70.9548 246.279 71.0153C246.487 71.1775 246.717 71.3246 246.969 71.4564C247.261 71.6097 247.582 71.7425 247.932 71.8547C248.122 71.9171 248.319 71.9705 248.525 72.015C249.02 72.1223 249.562 72.1774 250.15 72.1803C250.167 72.1804 250.184 72.1805 250.2 72.1805C250.689 72.1805 251.163 72.1446 251.623 72.0729C251.634 72.0712 251.645 72.0695 251.656 72.0678C252.072 72.0012 252.477 71.9051 252.869 71.7795C253.091 71.7086 253.305 71.6291 253.511 71.5411C253.533 71.5318 253.555 71.5223 253.577 71.5128C253.751 71.4364 253.92 71.3537 254.083 71.2649C254.43 71.076 254.752 70.8591 255.049 70.6143C255.676 70.1131 256.168 69.495 256.528 68.76C256.895 68.0166 257.079 67.1729 257.079 66.2291C257.079 65.5859 256.974 64.972 256.766 64.3873C256.557 63.8026 256.281 63.2429 255.939 62.7083C255.596 62.1738 255.204 61.6601 254.761 61.1673C254.327 60.6661 253.88 60.1816 253.42 59.7139C252.969 59.2377 252.522 58.77 252.08 58.3106C251.645 57.8428 251.257 57.3792 250.914 56.9198C250.572 56.4521 250.296 55.9801 250.088 55.504C249.879 55.0279 249.774 54.5393 249.774 54.0381C249.774 53.6038 249.829 53.2279 249.937 52.9105C249.94 52.9013 249.943 52.8923 249.947 52.8833C250.054 52.5782 250.193 52.3284 250.363 52.1336C250.547 51.9248 250.747 51.7703 250.965 51.6701C251.019 51.6459 251.073 51.6247 251.127 51.6064C251.299 51.5486 251.47 51.5197 251.641 51.5197C252.059 51.5197 252.376 51.6158 252.593 51.8079C252.671 51.8733 252.741 51.9446 252.805 52.0217C252.811 52.0293 252.817 52.037 252.823 52.0447C252.93 52.1784 253.016 52.3292 253.082 52.497C253.158 52.6895 253.219 52.8962 253.267 53.1172C253.287 53.2127 253.305 53.3108 253.32 53.4116C253.37 53.7374 253.429 54.0381 253.495 54.3137C253.571 54.5894 253.679 54.8233 253.821 55.0154C253.972 55.1991 254.201 55.291 254.51 55.291C254.769 55.291 254.995 55.2326 255.187 55.1156C255.379 54.9987 255.538 54.8525 255.663 54.6771C255.788 54.5017 255.88 54.3096 255.939 54.1007C255.997 53.8836 256.026 53.6747 256.026 53.4743C256.026 53.0483 255.918 52.6473 255.701 52.2715C255.589 52.0741 255.45 51.8911 255.283 51.7224C255.261 51.7002 255.239 51.6781 255.216 51.6564C255.074 51.5219 254.914 51.397 254.736 51.2817C254.403 51.0553 254.009 50.8687 253.554 50.7219C253.543 50.7184 253.532 50.7149 253.521 50.7114Z" fill="#253D57"/>
<path d="M143.455 165.421L132.79 162.37C131.633 162.034 130.746 161.577 130.131 160.998C129.533 160.401 129.235 159.412 129.235 158.031V156.015C129.235 154.635 129.533 153.655 130.131 153.076C130.746 152.479 131.633 152.013 132.79 151.677L143.455 148.625C143.81 148.551 144.062 148.588 144.211 148.737C144.379 148.887 144.463 149.139 144.463 149.493V153.188C144.463 153.543 144.379 153.813 144.211 154C144.062 154.168 143.81 154.28 143.455 154.336L135.421 156.491C135.235 156.529 135.104 156.585 135.029 156.659C134.973 156.734 134.945 156.855 134.945 157.023C134.945 157.191 134.973 157.312 135.029 157.387C135.104 157.462 135.235 157.518 135.421 157.555L143.455 159.711C143.81 159.766 144.062 159.888 144.211 160.074C144.379 160.242 144.463 160.504 144.463 160.858V164.553C144.463 164.908 144.379 165.16 144.211 165.309C144.062 165.458 143.81 165.496 143.455 165.421Z" fill="#253D57"/>
<path d="M185.509 162.37L174.844 165.421C174.49 165.496 174.228 165.458 174.06 165.309C173.911 165.16 173.837 164.908 173.837 164.553V160.858C173.837 160.504 173.911 160.242 174.06 160.074C174.228 159.888 174.49 159.766 174.844 159.711L182.878 157.555C183.065 157.518 183.186 157.462 183.242 157.387C183.317 157.312 183.354 157.191 183.354 157.023C183.354 156.855 183.317 156.734 183.242 156.659C183.186 156.585 183.065 156.529 182.878 156.491L174.844 154.336C174.49 154.28 174.228 154.168 174.06 154C173.911 153.813 173.837 153.543 173.837 153.188V149.493C173.837 149.139 173.911 148.887 174.06 148.737C174.228 148.588 174.49 148.551 174.844 148.625L185.509 151.677C186.667 152.013 187.544 152.479 188.141 153.076C188.757 153.655 189.065 154.635 189.065 156.015V158.031C189.065 159.412 188.757 160.401 188.141 160.998C187.544 161.577 186.667 162.034 185.509 162.37Z" fill="#253D57"/>
<path d="M192.465 302.862C192.465 304.137 192.644 305.531 193.001 307.045C193.398 308.519 193.954 310.013 194.668 311.527C195.383 313.041 196.256 314.495 197.288 315.889C198.36 317.243 199.571 318.459 200.921 319.534C202.31 320.61 203.839 321.466 205.506 322.104C207.173 322.741 208.999 323.06 210.984 323.06C212.374 323.06 213.664 322.9 214.855 322.582C216.046 322.263 217.157 321.825 218.19 321.267C219.222 320.709 220.214 320.072 221.167 319.355C222.12 318.598 223.072 317.801 224.025 316.965L225.514 318.399C224.601 319.634 223.43 320.988 222.001 322.462C220.571 323.936 218.845 325.331 216.82 326.645C214.795 327.92 212.433 328.996 209.734 329.872C207.034 330.709 203.958 331.127 200.504 331.127C197.05 331.127 193.676 330.509 190.381 329.274C187.125 328 184.227 326.107 181.687 323.598C179.146 321.088 177.102 317.961 175.553 314.216C174.045 310.471 173.29 306.089 173.29 301.069C173.29 297.444 173.747 294.118 174.66 291.09C175.573 288.062 176.804 285.333 178.352 282.903C179.94 280.473 181.766 278.342 183.83 276.509C185.934 274.677 188.138 273.163 190.44 271.968C192.743 270.733 195.085 269.817 197.467 269.219C199.888 268.582 202.211 268.263 204.434 268.263C207.372 268.263 209.932 268.582 212.116 269.219C214.299 269.856 216.105 270.713 217.535 271.789C219.003 272.864 220.095 274.119 220.81 275.553C221.524 276.948 221.881 278.422 221.881 279.975C221.881 281.848 221.346 283.541 220.274 285.055C219.202 286.529 217.773 287.823 215.986 288.939L192.465 302.862ZM204.434 290.731C204.95 290.413 205.367 290.114 205.684 289.835C206.042 289.516 206.32 289.158 206.518 288.759C206.717 288.321 206.856 287.803 206.935 287.206C207.054 286.568 207.114 285.792 207.114 284.875C207.114 283.879 206.995 282.784 206.756 281.589C206.558 280.354 206.201 279.198 205.684 278.123C205.168 277.047 204.513 276.151 203.719 275.434C202.925 274.717 201.973 274.358 200.861 274.358C199.432 274.358 198.201 274.796 197.169 275.673C196.177 276.509 195.343 277.605 194.668 278.959C194.033 280.314 193.517 281.868 193.12 283.62C192.763 285.333 192.485 287.066 192.286 288.819C192.088 290.572 191.969 292.265 191.929 293.899C191.889 295.492 191.869 296.847 191.869 297.962L204.434 290.731Z" fill="#253D57"/>
<path d="M231.945 279.497C231.707 277.904 231.31 276.669 230.754 275.792C230.238 274.916 229.345 274.478 228.074 274.478C227.4 274.478 226.804 274.597 226.288 274.836C225.812 275.075 225.296 275.414 224.74 275.852L223.549 274.358C224.462 273.601 225.474 272.864 226.586 272.147C227.737 271.39 228.968 270.733 230.278 270.175C231.588 269.617 232.997 269.159 234.506 268.801C236.014 268.442 237.602 268.263 239.269 268.263C241.651 268.263 243.577 268.681 245.046 269.518C246.514 270.315 247.666 271.33 248.499 272.565C249.373 273.761 249.988 275.055 250.345 276.45C250.703 277.844 250.961 279.099 251.119 280.214C252.588 292.285 254.236 301.428 256.062 307.643C257.888 313.857 260.052 316.965 262.553 316.965C263.942 316.965 265.272 316.208 266.542 314.694C267.852 313.18 268.984 311.108 269.937 308.479C270.929 305.85 271.723 302.782 272.319 299.277C272.914 295.771 273.212 292.026 273.212 288.042C273.212 285.413 273.033 283.202 272.676 281.409C272.319 279.577 271.922 278.043 271.485 276.808C271.048 275.573 270.651 274.557 270.294 273.761C269.937 272.924 269.758 272.187 269.758 271.55C269.758 270.952 269.996 270.454 270.473 270.056C270.949 269.657 271.505 269.319 272.14 269.04C272.815 268.761 273.49 268.562 274.164 268.442C274.879 268.323 275.455 268.263 275.891 268.263C277.043 268.263 277.876 268.422 278.392 268.741C278.908 269.06 279.325 269.677 279.643 270.593C280 271.749 280.238 273.282 280.357 275.195C280.516 277.067 280.596 279.079 280.596 281.23C280.596 284.298 280.377 287.664 279.941 291.329C279.544 294.994 278.908 298.679 278.035 302.384C277.201 306.089 276.13 309.674 274.82 313.14C273.509 316.606 271.941 319.693 270.115 322.402C268.329 325.072 266.284 327.223 263.982 328.856C261.719 330.45 259.178 331.246 256.36 331.246C253.065 331.246 250.206 330.29 247.785 328.378C245.363 326.466 243.299 323.976 241.592 320.909C239.924 317.841 238.535 314.395 237.423 310.571C236.312 306.746 235.399 302.922 234.684 299.097C234.009 295.233 233.454 291.588 233.017 288.162C232.62 284.696 232.263 281.808 231.945 279.497Z" fill="#253D57"/>
</g>
<defs>
<filter id="filter0_d_5_42" x="0.669112" y="7.62939e-06" width="323.109" height="350.502" filterUnits="userSpaceOnUse" color-interpolation-filters="sRGB">
<feFlood flood-opacity="0" result="BackgroundImageFix"/>
<feColorMatrix in="SourceAlpha" type="matrix" values="0 0 0 0 0 0 0 0 0 0 0 0 0 0 0 0 0 0 127 0" result="hardAlpha"/>
<feOffset dy="9.33089"/>
<feGaussianBlur stdDeviation="4.66544"/>
<feComposite in2="hardAlpha" operator="out"/>
<feColorMatrix type="matrix" values="0 0 0 0 0 0 0 0 0 0 0 0 0 0 0 0 0 0 0.25 0"/>
<feBlend mode="normal" in2="BackgroundImageFix" result="effect1_dropShadow_5_42"/>
<feBlend mode="normal" in="SourceGraphic" in2="effect1_dropShadow_5_42" result="shape"/>
</filter>
</defs>
</svg>
